<svg xmlns="http://www.w3.org/2000/svg" viewBox="0 0 1200 820">
  <defs>
    <linearGradient id="bg" x1="0" y1="0" x2="1" y2="1">
      <stop stop-color="#162334"/>
      <stop offset="1" stop-color="#05070c"/>
    </linearGradient>
  </defs>
  <rect width="1200" height="820" fill="url(#bg)"/>
  <circle cx="930" cy="190" r="180" fill="#5de1ff" opacity=".12"/>
  <rect x="255" y="172" width="690" height="430" rx="28" fill="#0e1824" stroke="#5de1ff" stroke-width="5" opacity=".96"/>
  <rect x="325" y="246" width="220" height="128" rx="10" fill="#101f2e" stroke="#7cffc4" stroke-width="4"/>
  <rect x="613" y="246" width="188" height="128" rx="10" fill="#101f2e" stroke="#d8a75a" stroke-width="4"/>
  <path d="M325 452h476M435 374v78M707 374v78" stroke="#5de1ff" stroke-width="7" stroke-linecap="round"/>
  <g fill="#7cffc4">
    <circle cx="325" cy="452" r="12"/><circle cx="435" cy="452" r="12"/><circle cx="707" cy="452" r="12"/><circle cx="801" cy="452" r="12"/>
  </g>
  <path d="M945 315c70 0 126 56 126 126M945 365c42 0 76 34 76 76M945 415c14 0 26 12 26 26" fill="none" stroke="#7cffc4" stroke-width="10" stroke-linecap="round"/>
  <text x="325" y="548" fill="#c8d4e5" font-family="Consolas,monospace" font-size="32">ENV NODE / LOW POWER</text>
</svg>
